<svg viewBox="0 0 480 220" xmlns="http://www.w3.org/2000/svg">
  <rect width="480" height="220" fill="#0F2418"/>
  <!-- top bar -->
  <rect x="0" y="0" width="480" height="34" fill="#132B1E"/>
  <circle cx="20" cy="17" r="4" fill="#FF6B4D"/>
  <circle cx="34" cy="17" r="4" fill="#4FC3FF"/>
  <circle cx="48" cy="17" r="4" fill="#B6FF4E"/>
  <text x="240" y="22" fill="#7FE0A8" font-family="monospace" font-size="11" text-anchor="middle" letter-spacing="1">FINSAGE AI — DASHBOARD</text>

  <!-- savings rate badge -->
  <rect x="24" y="52" width="150" height="60" rx="8" fill="#132B1E" stroke="#2A4A3A"/>
  <text x="38" y="74" fill="#8FB39E" font-family="monospace" font-size="9" letter-spacing="1">SAVINGS RATE</text>
  <text x="38" y="98" fill="#B6FF4E" font-family="monospace" font-size="22" font-weight="700">27.4%</text>

  <rect x="188" y="52" width="150" height="60" rx="8" fill="#132B1E" stroke="#2A4A3A"/>
  <text x="202" y="74" fill="#8FB39E" font-family="monospace" font-size="9" letter-spacing="1">MONTHLY SIP</text>
  <text x="202" y="98" fill="#4FC3FF" font-family="monospace" font-size="20" font-weight="700">₹8,400</text>

  <rect x="352" y="52" width="104" height="60" rx="8" fill="#132B1E" stroke="#2A4A3A"/>
  <text x="366" y="74" fill="#8FB39E" font-family="monospace" font-size="9" letter-spacing="1">STATUS</text>
  <text x="366" y="96" fill="#B6FF4E" font-family="monospace" font-size="13" font-weight="700">GOOD</text>

  <!-- budget bars -->
  <g font-family="monospace" font-size="9" fill="#8FB39E">
    <text x="24" y="136">RENT</text>
    <rect x="90" y="128" width="200" height="8" rx="4" fill="#1E3A2A"/>
    <rect x="90" y="128" width="130" height="8" rx="4" fill="#FF6B4D"/>

    <text x="24" y="156">FOOD</text>
    <rect x="90" y="148" width="200" height="8" rx="4" fill="#1E3A2A"/>
    <rect x="90" y="148" width="90" height="8" rx="4" fill="#4FC3FF"/>

    <text x="24" y="176">EMI</text>
    <rect x="90" y="168" width="200" height="8" rx="4" fill="#1E3A2A"/>
    <rect x="90" y="168" width="60" height="8" rx="4" fill="#B6FF4E"/>

    <text x="24" y="196">INVEST</text>
    <rect x="90" y="188" width="200" height="8" rx="4" fill="#1E3A2A"/>
    <rect x="90" y="188" width="150" height="8" rx="4" fill="#B6FF4E"/>
  </g>

  <text x="456" y="210" fill="#3E5C4C" font-family="monospace" font-size="8" text-anchor="end">generated preview — no screenshot supplied</text>
</svg>
